<svg xmlns="http://www.w3.org/2000/svg" xmlns:xlink="http://www.w3.org/1999/xlink" viewBox="0 0 374.01 455.5"><defs><style>.cls-1{fill:url(#linear-gradient);}.cls-2{fill:url(#linear-gradient-2);}.cls-3{fill:#274e68;}.cls-4{fill:url(#linear-gradient-3);}.cls-5{fill:url(#linear-gradient-4);}</style><linearGradient id="linear-gradient" x1="110.05" y1="90.62" x2="384.69" y2="90.62" gradientUnits="userSpaceOnUse"><stop offset="0" stop-color="#44d272"/><stop offset="1" stop-color="#14a9c2"/></linearGradient><linearGradient id="linear-gradient-2" x1="247.61" y1="-5.21" x2="247.61" y2="164.88" gradientUnits="userSpaceOnUse"><stop offset="0" stop-color="#16927d"/><stop offset="0.23" stop-color="#16967f"/><stop offset="0.45" stop-color="#18a184"/><stop offset="0.67" stop-color="#1ab58d"/><stop offset="0.73" stop-color="#1bbb90"/></linearGradient><linearGradient id="linear-gradient-3" x1="138.55" y1="332.69" x2="159.74" y2="332.69" gradientUnits="userSpaceOnUse"><stop offset="0" stop-color="#33c88c"/><stop offset="1" stop-color="#25b38e"/></linearGradient><linearGradient id="linear-gradient-4" x1="337.4" y1="331.72" x2="359.07" y2="331.72" gradientUnits="userSpaceOnUse"><stop offset="0" stop-color="#0091ac"/><stop offset="1" stop-color="#23b3c3"/></linearGradient></defs><g id="Layer_2" data-name="Layer 2"><path class="cls-1" d="M384.69,123.23l-35.51,35.51C349,104.12,303.6,59.9,247.59,59.9c-55.33,0-100.34,43.15-101.56,96.85l-36-36C128.21,63.84,182.66,22.5,247,22.5,312.25,22.5,367.33,65,384.69,123.23Z" transform="translate(-62.5 -22.5)"/><path class="cls-2" d="M326.09,181.82a77.55,77.55,0,0,0,3.21-22.18c0-44.07-36.62-79.79-81.79-79.79s-81.78,35.72-81.78,79.79a77.9,77.9,0,0,0,2.38,19.19L146,156.75c1.22-53.7,46.23-96.85,101.56-96.85,56,0,101.44,44.22,101.59,98.84Z" transform="translate(-62.5 -22.5)"/><path class="cls-3" d="M436.51,97.75V370.22A203.22,203.22,0,0,1,334.28,477.43V405.24a168.12,168.12,0,0,0,43.64-35.07V253.73l-77.16,73.7-52.34,50-52.35-50-75-71.62V362.75a167.82,167.82,0,0,0,43.63,38.81V478A203.27,203.27,0,0,1,62.5,373.19V99.83l48,45.86,10.12,9.66.48.46L248.42,277.43l129.5-123.7,3-2.91,5.84-5.57Z" transform="translate(-62.5 -22.5)"/><path class="cls-4" d="M159.74,305.68V380c-10.81-7.63-17.5-19-21.19-27.15V285.43Z" transform="translate(-62.5 -22.5)"/><path class="cls-5" d="M359.07,283.65v71.54C354.47,362,346.29,373,337.4,379.8V304.35Z" transform="translate(-62.5 -22.5)"/></g></svg>